<?xml version="1.0" encoding="UTF-8" standalone="no"?>
<!-- Created with Inkscape (http://www.inkscape.org/) -->

<svg
   width="46.101414mm"
   height="27.187586mm"
   viewBox="0 0 46.101414 27.187586"
   version="1.1"
   id="svg1"
   xml:space="preserve"
   inkscape:version="1.3.2 (091e20e, 2023-11-25, custom)"
   sodipodi:docname="inomeado.svg"
   xmlns:inkscape="http://www.inkscape.org/namespaces/inkscape"
   xmlns:sodipodi="http://sodipodi.sourceforge.net/DTD/sodipodi-0.dtd"
   xmlns="http://www.w3.org/2000/svg"
   xmlns:svg="http://www.w3.org/2000/svg"><sodipodi:namedview
     id="namedview1"
     pagecolor="#ffffff"
     bordercolor="#000000"
     borderopacity="0.25"
     inkscape:showpageshadow="2"
     inkscape:pageopacity="0.0"
     inkscape:pagecheckerboard="0"
     inkscape:deskcolor="#d1d1d1"
     inkscape:document-units="mm"
     inkscape:zoom="1.4142136"
     inkscape:cx="144.95689"
     inkscape:cy="605.63696"
     inkscape:window-width="1716"
     inkscape:window-height="869"
     inkscape:window-x="98"
     inkscape:window-y="56"
     inkscape:window-maximized="0"
     inkscape:current-layer="layer1" /><defs
     id="defs1" /><g
     inkscape:label="Camada 1"
     inkscape:groupmode="layer"
     id="layer1"
     transform="translate(-39.77184,-167.63627)"><path
       id="path1-8"
       style="display:inline;fill:#445500;stroke-width:0.235322"
       d="m 52.910465,167.63628 c -0.04366,0 -0.111831,0.0774 -0.151411,0.17157 -0.03958,0.0941 -0.124539,0.23959 -0.188619,0.32349 -0.103077,0.135 -0.128903,0.14238 -0.223243,0.0641 -0.09854,-0.0818 -0.104027,-0.0671 -0.07545,0.19017 0.017,0.15309 0.05247,0.34526 0.07906,0.42736 0.04386,0.13538 0.03359,0.14614 -0.112138,0.11834 -0.123877,-0.0237 -0.190275,0.009 -0.289905,0.14418 -0.07105,0.0961 -0.129191,0.21808 -0.129191,0.27078 0,0.0528 -0.05605,0.15164 -0.12454,0.22014 -0.149227,0.14926 -0.16017,0.24908 -0.02739,0.24908 0.05335,0 0.08176,0.025 0.06305,0.0553 -0.01871,0.0303 0.0559,0.0925 0.165881,0.13797 l 0.199988,0.0827 -0.216525,0.0444 c -0.118975,0.0247 -0.242905,0.019 -0.275435,-0.0129 -0.115532,-0.11352 -0.144946,-0.0543 -0.128158,0.25683 0.01377,0.25528 -1.47e-4,0.30839 -0.0739,0.28009 -0.05007,-0.0193 -0.16598,-0.0378 -0.257348,-0.0398 l -0.165882,-0.005 0.164331,-0.0734 0.164848,-0.0729 -0.119372,-0.23306 c -0.06575,-0.12816 -0.150166,-0.23306 -0.187586,-0.23306 -0.06571,0 -0.05494,-0.10666 0.04341,-0.42581 0.03904,-0.12653 0.02631,-0.14274 -0.100252,-0.12454 -0.110676,0.016 -0.153974,-0.0146 -0.181384,-0.12868 -0.0198,-0.0824 -0.08718,-0.18057 -0.149862,-0.21807 -0.0915,-0.0547 -0.128198,-0.0441 -0.185518,0.0527 -0.03927,0.0663 -0.138185,0.18485 -0.219625,0.26355 -0.115715,0.11177 -0.139938,0.18401 -0.110588,0.33073 0.03123,0.15621 0.01775,0.18758 -0.08062,0.18758 -0.09752,0 -0.114885,0.0384 -0.09819,0.21808 0.01974,0.21234 -0.09159,0.3069 -0.184485,0.15658 -0.02083,-0.0337 -0.120644,0.0232 -0.221692,0.12661 -0.178117,0.18221 -0.232762,0.30657 -0.136942,0.31057 0.02568,0.001 0.09984,0.0418 0.164847,0.091 0.09727,0.0736 0.104361,0.10669 0.03979,0.18449 -0.09938,0.11974 -0.03323,0.30783 0.09147,0.25993 0.05108,-0.0196 0.09302,-0.008 0.09302,0.0248 0,0.0332 -0.105163,0.0609 -0.233577,0.0615 -0.138017,8.1e-4 -0.297114,0.0522 -0.389124,0.12557 l -0.155546,0.12454 0.177767,0.14625 c 0.153129,0.12627 0.1681,0.16482 0.10697,0.27905 -0.05807,0.10847 -0.05393,0.13281 0.02429,0.13281 0.138214,0 0.117384,0.10828 -0.03669,0.19068 -0.111164,0.0595 -0.156153,0.0474 -0.28112,-0.0775 -0.116971,-0.11697 -0.151748,-0.22504 -0.163298,-0.50436 -0.01333,-0.32231 -0.02791,-0.35515 -0.155029,-0.35554 -0.09698,-3.7e-4 -0.140043,-0.0377 -0.140043,-0.12144 0,-0.0665 -0.02575,-0.13656 -0.05736,-0.15606 -0.03161,-0.0195 -0.0757,-0.11935 -0.09819,-0.22169 -0.0409,-0.18627 -0.155546,-0.26086 -0.155546,-0.10129 0,0.0466 -0.06994,0.18752 -0.155546,0.31368 -0.08561,0.12615 -0.155546,0.2844 -0.155546,0.3514 0,0.067 -0.04216,0.12196 -0.09353,0.12196 -0.06042,0 -0.09353,0.0605 -0.09353,0.17156 0,0.13077 -0.0442,0.19125 -0.186552,0.25425 -0.179575,0.0795 -0.253815,0.19637 -0.12454,0.19637 0.03424,0 0.06201,0.0422 0.06201,0.0935 0,0.0514 0.04216,0.0935 0.09353,0.0935 0.180699,0 0.09011,0.10687 -0.187069,0.22117 -0.257826,0.10632 -0.367383,0.21446 -0.217557,0.21446 0.03424,0 0.06201,0.043 0.06201,0.0956 0,0.0526 0.04774,0.16855 0.105937,0.25735 0.101715,0.15524 0.10063,0.16575 -0.03101,0.27234 -0.07532,0.061 -0.136942,0.1553 -0.136942,0.2098 0,0.1103 -0.09657,0.13289 -0.156063,0.0367 -0.062,-0.10036 -0.235614,-0.0747 -0.195854,0.0289 0.01929,0.0503 0.0093,0.10763 -0.02222,0.12713 -0.0315,0.0195 -0.0021,0.0903 0.06511,0.15761 0.06723,0.0672 0.121956,0.20127 0.121956,0.29817 0,0.14153 -0.02693,0.17557 -0.136943,0.17157 -0.105233,-0.004 -0.151826,0.0466 -0.202054,0.21807 -0.03596,0.12277 -0.114787,0.27185 -0.174667,0.33125 -0.131658,0.13065 -0.2076,0.40054 -0.132292,0.46974 0.03003,0.0276 1.539372,0.15273 3.354318,0.27802 1.814945,0.1253 4.588728,0.32469 6.163965,0.44286 1.575235,0.11813 2.921303,0.2151 2.991031,0.21549 0.0702,3.8e-4 0.399643,0.24187 0.73794,0.54106 0.608553,0.53826 0.612197,0.54019 1.024744,0.58239 0.22778,0.0233 0.456989,0.0462 0.509529,0.0512 0.08114,0.008 0.309025,-0.27867 0.309025,-0.38809 0,-0.061 -0.36109,-0.22583 -0.49506,-0.22583 -0.124573,0 -0.708447,-0.67018 -0.723987,-0.83095 -0.01921,-0.19854 -0.03265,-0.22067 -0.112138,-0.19017 -0.141581,0.0543 -0.363273,-0.28618 -0.336413,-0.51625 0.02048,-0.17543 0.0039,-0.20239 -0.134876,-0.21859 -0.138963,-0.0162 -0.161243,-0.0514 -0.178283,-0.28887 -0.01288,-0.17932 0.0032,-0.25696 0.04702,-0.22996 0.04117,0.0254 0.06615,-0.0308 0.06615,-0.14935 0,-0.20935 -0.08521,-0.25016 -0.177767,-0.0848 -0.05023,0.0898 -0.07486,0.0937 -0.15968,0.0233 -0.07386,-0.0613 -0.08222,-0.10453 -0.03256,-0.16433 0.04684,-0.0564 0.04771,-0.11773 0.0031,-0.20103 -0.04719,-0.0882 -0.04067,-0.15121 0.02481,-0.23771 0.121693,-0.16076 0.114931,-0.27337 -0.01654,-0.27337 -0.06025,0 -0.142298,-0.0526 -0.182418,-0.11678 -0.05792,-0.0927 -0.05278,-0.14563 0.02584,-0.25787 0.09381,-0.13394 0.09064,-0.1478 -0.06615,-0.262 -0.1249,-0.091 -0.156561,-0.15603 -0.129191,-0.2651 0.02268,-0.0904 0.0031,-0.1644 -0.05168,-0.1974 -0.04817,-0.029 -0.130965,-0.16458 -0.184485,-0.30128 l -0.09767,-0.24856 -0.101286,0.24236 c -0.05565,0.13319 -0.146898,0.27568 -0.203088,0.31678 -0.07206,0.0527 -0.08107,0.0882 -0.03049,0.11937 0.03943,0.0244 0.07183,0.0846 0.07183,0.13436 0,0.0713 -0.0561,0.082 -0.264583,0.0501 -0.309119,-0.0473 -0.353343,-0.0736 -0.240812,-0.14315 0.06159,-0.0381 0.06567,-0.0823 0.01654,-0.17415 -0.04633,-0.0868 -0.04595,-0.14267 0.0016,-0.19017 0.09071,-0.0907 0.0099,-0.38757 -0.105419,-0.38757 -0.05118,0 -0.09198,-0.0564 -0.09198,-0.12661 0,-0.0695 -0.04391,-0.1429 -0.09715,-0.1633 -0.05655,-0.0217 -0.08916,-0.0947 -0.07855,-0.1757 0.01,-0.0762 -0.05501,-0.24797 -0.144694,-0.38137 -0.08969,-0.13341 -0.187301,-0.28795 -0.217041,-0.34365 -0.04033,-0.0756 -0.09016,-0.0883 -0.195854,-0.0486 -0.110725,0.0416 -0.133536,0.0859 -0.104386,0.20205 0.0258,0.10277 0.0073,0.16056 -0.06046,0.18656 -0.05392,0.0207 -0.09819,0.10133 -0.09819,0.17983 0,0.0784 -0.05454,0.17679 -0.12144,0.21859 -0.180224,0.11255 -0.233053,-0.0273 -0.06821,-0.18087 0.141444,-0.13177 0.277499,-0.42017 0.223759,-0.47387 -0.04803,-0.048 -0.221175,0.11547 -0.221175,0.20877 0,0.0646 -0.04009,0.0681 -0.186552,0.0171 -0.223518,-0.0779 -0.287916,-0.16325 -0.193786,-0.25735 0.03811,-0.0381 0.06925,-0.11742 0.06925,-0.17622 0,-0.0588 0.03297,-0.11786 0.07338,-0.13126 0.13158,-0.0438 -7.79e-4,-0.23512 -0.162781,-0.23512 -0.106278,0 -0.14536,-0.027 -0.12299,-0.0853 0.01801,-0.047 -0.01074,-0.12902 -0.06408,-0.18242 -0.05334,-0.0533 -0.09715,-0.15492 -0.09715,-0.22582 0,-0.0875 -0.04009,-0.1292 -0.124541,-0.1292 -0.08978,0 -0.12454,-0.0416 -0.12454,-0.14882 0,-0.0818 -0.05607,-0.21479 -0.12454,-0.29559 -0.122158,-0.14422 -0.125868,-0.14497 -0.217558,-0.0264 -0.05139,0.0665 -0.09353,0.17168 -0.09353,0.23358 0,0.0619 -0.04077,0.11265 -0.09043,0.11265 -0.151378,0 -0.219513,0.1937 -0.120923,0.34417 0.07996,0.12203 0.07452,0.13964 -0.06821,0.20464 -0.189921,0.0865 -0.197219,0.19184 -0.02739,0.40772 0.125068,0.159 0.08914,0.23332 -0.04703,0.0972 -0.07813,-0.0781 -0.331246,0.0502 -0.331246,0.16794 0,0.0389 -0.04165,0.10572 -0.09302,0.14832 -0.119702,0.0993 -0.120006,0.003 -5.17e-4,-0.22635 0.119183,-0.22844 0.120349,-0.35732 0.0026,-0.31212 -0.05027,0.0193 -0.107918,0.008 -0.128158,-0.0248 -0.02024,-0.0327 -0.0098,-0.0594 0.02325,-0.0594 0.03304,0 0.0453,-0.0561 0.02739,-0.12454 -0.02299,-0.0879 -0.0019,-0.12455 0.07183,-0.12455 0.05877,0 0.08597,-0.0293 0.06253,-0.0672 -0.02286,-0.037 0.02043,-0.11082 0.09612,-0.16382 l 0.137459,-0.0961 -0.159163,-0.14779 c -0.0876,-0.0812 -0.185685,-0.1478 -0.218075,-0.1478 -0.03239,0 -0.0882,-0.0838 -0.124023,-0.18655 -0.07111,-0.20401 -0.134899,-0.22598 -0.318844,-0.1111 -0.172288,0.10759 -0.219441,0.0233 -0.138493,-0.2465 0.1463,-0.48764 0.156078,-0.55032 0.0739,-0.47232 -0.119821,0.11376 -0.248564,0.0251 -0.248564,-0.17105 0,-0.18892 -0.323221,-0.61805 -0.465605,-0.61805 z m -1.727026,3.27112 c 0.02931,0.005 0.02559,0.0421 -0.03721,0.1049 -0.11125,0.11124 -0.08987,0.16988 0.08578,0.23668 0.08768,0.0334 0.143423,0.0864 0.124023,0.11782 -0.0194,0.0314 -1.28e-4,0.0711 0.04289,0.0884 v 5.1e-4 c 0.0617,0.0249 0.06142,0.0322 -0.0016,0.0362 -0.04388,0.003 -0.09605,-0.0371 -0.115756,-0.0884 -0.01971,-0.0514 -0.06535,-0.0935 -0.101802,-0.0935 -0.03645,0 -0.117129,-0.046 -0.179317,-0.10232 -0.108925,-0.0986 -0.108136,-0.10636 0.02067,-0.21808 0.07073,-0.0614 0.132955,-0.0875 0.162264,-0.0822 z m 5.337659,0.74362 c 0.01045,-0.004 0.03069,-0.002 0.05839,0.009 0.05315,0.0204 0.09663,0.0481 0.09663,0.0615 0,0.0504 -0.118459,0.022 -0.155029,-0.0372 -0.01091,-0.0177 -0.01045,-0.0287 0,-0.0331 z m 12.242663,0.0977 c -0.04808,-6e-4 -0.102241,0.007 -0.164331,0.0227 -0.164803,0.0414 -0.405143,0.38989 -0.405143,0.58756 0,0.0821 -0.06831,0.16652 -0.182934,0.22582 -0.100652,0.0521 -0.226647,0.15677 -0.280087,0.23307 -0.125281,0.17876 -0.125776,0.57034 -0.001,0.67386 0.106065,0.088 0.06452,0.15487 -0.166915,0.27026 -0.351198,0.17509 -0.559454,0.83168 -0.334863,1.05627 0.132318,0.13231 0.417571,0.18154 0.616499,0.10594 0.273486,-0.10404 0.503613,-0.0774 0.642338,0.0749 0.189116,0.20761 0.265633,0.38505 0.207223,0.47955 -0.07023,0.11364 -0.564296,0.0457 -0.664559,-0.0915 -0.05322,-0.0728 -0.172195,-0.10342 -0.406693,-0.10542 -0.672826,-0.005 -0.98547,0.14112 -0.98547,0.46095 0,0.0988 -0.05971,0.26077 -0.132808,0.35967 -0.253474,0.34285 0.071,0.56003 0.478007,0.31988 0.308733,-0.18212 0.437449,-0.16691 0.553971,0.0667 0.09467,0.18979 0.09265,0.20484 -0.04858,0.35812 -0.08106,0.088 -0.164648,0.2088 -0.185518,0.2682 -0.04807,0.13689 0.121183,0.23343 0.336413,0.19223 0.148584,-0.0284 0.164633,-0.007 0.242363,0.3173 0.04882,0.20348 0.117424,0.34726 0.165364,0.34726 0.05636,0 0.07129,-0.0539 0.04754,-0.1726 -0.05015,-0.25077 0.161542,-0.43624 0.382922,-0.33538 0.137174,0.0625 0.153379,0.0994 0.119889,0.27802 l -0.03876,0.20619 1.327568,0.17312 1.328084,0.17311 0.653707,0.34572 c 0.940499,0.49749 3.373642,1.88451 3.502111,1.99626 0.287208,0.24985 0.03451,0.50089 -0.595829,0.59169 l -0.461987,0.0667 -0.02894,0.95343 c -0.01593,0.5246 2.13e-4,1.38456 0,1.91151 l -5.17e-4,0.75602 -0.359151,-0.0315 c -1.02e-4,-0.48063 4.62e-4,-0.7882 -0.001,-1.60455 l -0.0041,-2.38177 0.422196,-0.004 c 0.232258,-0.002 0.476149,-0.0256 0.541569,-0.0512 0.148891,-0.0584 0.12113,-0.0756 -1.520321,-0.94155 -0.667764,-0.35228 -1.480255,-0.79548 -1.805574,-0.98495 l -0.591179,-0.34417 -1.712557,-0.14314 c -1.813579,-0.15159 -5.616206,-0.3609 -7.840865,-0.4315 l -1.335319,-0.0424 -0.733805,-0.58343 -0.733805,-0.58291 h -0.67076 c -0.368852,-5e-5 -1.385032,-0.0555 -2.25826,-0.12299 -2.400318,-0.18569 -9.245123,-0.66728 -9.89242,-0.69608 l -0.334863,-0.015 -0.430982,0.9617 c -0.621328,1.38671 -1.109493,2.53279 -1.109493,2.60449 0,0.0357 0.09107,0.047 0.218075,0.0264 l 0.217558,-0.0351 v 1.15497 1.15548 l -0.167949,0.20671 c -0.09249,0.11392 -0.297275,0.34761 -0.455269,0.51883 -0.157993,0.17123 -0.317727,0.36563 -0.355017,0.43253 -0.05731,0.1028 -0.08303,0.10899 -0.166398,0.0398 -0.111327,-0.0924 -0.358762,-0.0516 -0.588595,0.0971 -0.08027,0.0519 -0.216991,0.24907 -0.303341,0.4377 -0.154006,0.33638 -0.16114,0.47538 -0.04444,0.87592 0.03509,0.12039 0.01769,0.14004 -0.125057,0.14004 -0.620824,0 -1.038575,0.80782 -0.629419,1.21698 0.08405,0.084 0.197758,0.15296 0.252698,0.15296 0.172161,0 0.03173,0.12416 -0.144694,0.12816 -0.09215,0.002 -0.356413,0.0529 -0.587561,0.11317 l -0.270785,0.0703 -0.977201,0.2579 c -7.01e-4,0.0717 -0.0056,-0.0588 -0.0062,0.0165 -0.0056,0.71242 -0.0067,1.5924 -0.0067,2.7156 v 4.45296 l 0.156062,0.30334 c 0.193733,0.37664 0.526523,0.65224 0.915707,0.75809 0.242807,0.066 4.330003,0.0769 22.059118,0.0589 20.340679,-0.0207 21.777746,-0.0293 22.026046,-0.12867 0.35432,-0.14179 0.717125,-0.56497 0.852145,-0.99426 0.100198,-0.31883 0.106297,-0.67953 0.077,-4.71805 -0.03093,-4.26174 -0.04865,-4.67312 -0.263549,-6.17792 -0.427116,-2.99075 -1.453965,-5.81165 -2.988965,-8.33799 -0.318406,-0.19566 -0.640677,-0.36621 -1.045526,0 l 0.02842,0.0408 -0.206189,-0.0408 H 80.92219 c -0.02867,0.0261 -0.05469,0.0611 -0.08423,0.11368 -0.12593,0.2243 -0.318468,0.35206 -0.359668,0.23875 -0.03619,-0.099 -0.17482,-0.0966 -0.47594,0.008 -0.28765,0.10017 -0.359271,0.19783 -0.285771,0.39119 0.06588,0.17326 0.01608,0.33279 -0.103869,0.33279 -0.0477,0 -0.0863,0.0296 -0.0863,0.0661 0,0.0386 -0.05354,0.0499 -0.127641,0.0264 -0.18837,-0.0598 -0.30985,0.0706 -0.26665,0.28629 0.04436,0.22176 -0.02935,0.23152 -0.357601,0.047 -0.19798,-0.1113 -0.25578,-0.12088 -0.33538,-0.0548 -0.0529,0.0439 -0.09612,0.10651 -0.09612,0.13901 0,0.0325 -0.04172,0.10115 -0.09302,0.15245 -0.0513,0.0514 -0.09353,0.14742 -0.09353,0.21342 0,0.0661 -0.03156,0.12041 -0.06976,0.12041 -0.03822,0 -0.05502,0.0541 -0.03772,0.1204 0.0182,0.0697 -0.0053,0.13428 -0.05529,0.15348 -0.0983,0.0377 -0.118871,0.28629 -0.02377,0.28629 0.0343,0 0.06201,0.0303 0.06201,0.0672 0,0.0421 -0.06853,0.0521 -0.183452,0.0269 -0.14124,-0.031 -0.209239,-0.0106 -0.294039,0.0884 -0.11842,0.1383 -0.245886,0.16825 -0.280086,0.0656 -0.01246,-0.0374 -0.115311,-0.0153 -0.250631,0.0538 l -0.228926,0.11679 -0.0739,-0.17829 c -0.04056,-0.098 -0.09857,-0.17776 -0.128674,-0.17776 -0.0301,0 -0.05478,-0.0705 -0.05478,-0.15607 0,-0.0916 -0.03526,-0.15554 -0.0863,-0.15554 -0.04771,0 -0.103269,-0.0422 -0.122989,-0.0935 -0.04678,-0.12189 -0.288355,-0.12189 -0.288355,0 0,0.0514 -0.04032,0.0935 -0.0894,0.0935 -0.100003,0 -0.189021,0.21377 -0.129191,0.31057 0.02135,0.0345 -0.005,0.0631 -0.0584,0.0631 -0.05336,0 -0.09663,0.0433 -0.09663,0.0961 0,0.0528 -0.05749,0.15724 -0.12764,0.23254 -0.0808,0.0867 -0.115301,0.18608 -0.09405,0.27078 0.02497,0.0994 -2.84e-4,0.14225 -0.0987,0.16795 -0.09413,0.0246 -0.122843,0.0697 -0.100253,0.15607 0.03729,0.14257 0.0021,0.20131 -0.181901,0.30385 -0.106352,0.0593 -0.142408,0.0593 -0.166398,0 -0.02344,-0.058 -0.03196,-0.0574 -0.03566,0.002 -0.0088,0.13886 -0.168229,0.0822 -0.258899,-0.092 -0.140062,-0.26904 -0.752236,-0.88071 -0.845426,-0.84491 -0.046,0.0177 -0.08372,0.0716 -0.08372,0.1204 0,0.0488 -0.04249,0.10506 -0.09457,0.12506 -0.05848,0.0224 -0.08841,0.0991 -0.07803,0.2005 0.01145,0.11178 -0.01284,0.16382 -0.07648,0.16382 -0.05592,0 -0.125196,0.10656 -0.173116,0.26562 -0.0702,0.23305 -0.09468,0.25807 -0.198438,0.20257 -0.159986,-0.0856 -0.168936,-0.0827 -0.208256,0.0677 -0.04524,0.17298 -0.196788,0.11744 -0.203088,-0.0744 -0.0086,-0.26303 -0.02309,-0.29724 -0.207223,-0.50695 -0.09931,-0.11311 -0.190084,-0.27518 -0.202054,-0.36018 -0.01801,-0.12773 -0.05613,-0.15451 -0.220659,-0.15451 -0.10946,0 -0.234582,-0.0352 -0.277502,-0.078 -0.04293,-0.0428 -0.116445,-0.0775 -0.163815,-0.0775 -0.155134,0 -0.04044,-0.15001 0.240296,-0.31419 0.151455,-0.0886 0.283332,-0.20425 0.293522,-0.25735 0.02295,-0.11917 -0.277102,-0.48679 -0.397392,-0.48679 -0.04829,0 -0.08785,-0.0422 -0.08785,-0.0935 0,-0.0514 0.02226,-0.0935 0.04961,-0.0935 0.08523,0 0.206078,-0.41863 0.166398,-0.57671 -0.02446,-0.0974 -0.147122,-0.20967 -0.348299,-0.31833 l -0.310059,-0.16743 -0.249597,0.14004 c -0.212974,0.1197 -0.257628,0.12658 -0.306958,0.0486 -0.07779,-0.12294 -0.07404,-0.27143 0.01137,-0.45889 0.09575,-0.21016 -0.02985,-0.51037 -0.264067,-0.63148 -0.09651,-0.0499 -0.244075,-0.15982 -0.328145,-0.24392 -0.08406,-0.0841 -0.232576,-0.17205 -0.329696,-0.19585 -0.218238,-0.0534 -0.267517,-0.12366 -0.268717,-0.38189 -8.06e-4,-0.17105 0.0218,-0.20257 0.14521,-0.20257 0.186918,0 0.351917,-0.18228 0.351917,-0.38861 0,-0.11698 -0.07154,-0.21326 -0.261483,-0.35295 -0.143726,-0.10567 -0.309543,-0.19223 -0.368453,-0.19223 -0.06201,0 -0.155145,-0.0984 -0.221175,-0.23358 -0.08876,-0.18158 -0.178736,-0.26021 -0.322978,-0.262 z m -19.785872,0.60306 c 0.02934,0.0178 0.01545,0.0564 -0.03101,0.0858 -0.131385,0.0833 -0.191806,0.0647 -0.102836,-0.0315 0.04416,-0.0475 0.104502,-0.0721 0.133842,-0.0543 z m 0.05891,0.26769 c 0.02702,0.003 0.02946,0.0327 -0.01499,0.0863 -0.05773,0.0695 -0.051,0.10108 0.03152,0.14728 0.121244,0.0678 0.04709,0.12786 -0.113172,0.0915 -0.12615,-0.0286 -0.142268,-0.14454 -0.03462,-0.25218 0.05259,-0.0526 0.104234,-0.076 0.131258,-0.0729 z m 8.969478,0.55862 c 0.0302,0 0.02367,0.0372 -0.01447,0.0832 -0.03806,0.0459 -0.05095,0.10204 -0.02842,0.12454 0.02253,0.0226 -0.0062,0.0408 -0.06356,0.0408 -0.08873,0 -0.09251,-0.0186 -0.02636,-0.12454 0.04278,-0.0685 0.10259,-0.12402 0.132808,-0.12402 z m 11.123869,2.13269 c 0.142286,-0.01 0.266215,0.0267 0.361735,0.10748 l 0.145211,0.12299 -0.292489,0.74828 c -0.160995,0.41166 -0.313537,0.74879 -0.338997,0.74879 -0.09232,0 -0.154805,-0.72248 -0.115755,-1.33894 l 0.02377,-0.37362 z m 1.018543,0.18241 c 0.369796,-0.0235 0.440026,0.0361 0.385506,0.3266 -0.03314,0.17662 -0.08529,0.24107 -0.251664,0.31057 -0.292374,0.12215 -0.37497,0.29526 -0.253215,0.53072 0.118101,0.2279 0.118332,0.2527 0.0041,0.2527 -0.114716,0 -0.220141,0.19169 -0.220141,0.40049 0,0.16636 -0.01054,0.16939 -0.373621,0.10439 -0.173261,-0.031 -0.214041,-0.0647 -0.197921,-0.1633 0.04911,-0.30083 0.335802,-1.20583 0.463021,-1.46193 0.133946,-0.26962 0.151564,-0.28164 0.443901,-0.30024 z m -2.476852,0.81959 c 0.01301,-0.004 0.0325,-0.002 0.05891,0.005 0.03522,0.01 0.08209,0.03 0.141076,0.0605 0.147666,0.0764 0.227802,0.0827 0.380339,0.0295 0.257227,-0.0897 0.356784,-0.0411 0.390674,0.18965 0.03254,0.22176 0.03047,0.22449 -0.07906,0.0925 -0.06373,-0.0768 -0.152929,-0.0909 -0.396875,-0.0625 -0.286944,0.0334 -0.324976,0.0228 -0.429948,-0.12299 -0.08294,-0.11515 -0.104145,-0.17941 -0.06511,-0.19172 z m -21.835876,0.66353 c 0.02062,1.4e-4 0.302,0.39198 0.625285,0.87126 l 0.588078,0.87178 0.594795,5.2e-4 c 0.327357,3e-4 1.127546,0.0274 1.778186,0.0605 0.650642,0.0331 3.424425,0.15989 6.163965,0.28164 2.739542,0.12175 5.005572,0.22871 5.035352,0.23771 0.02979,0.009 -0.05089,0.0964 -0.179317,0.1943 l -0.233578,0.17777 -2.964677,-0.13488 c -7.806906,-0.35587 -9.763644,-0.44368 -9.912573,-0.4439 h -0.161231 l 0.02946,1.42576 0.02894,1.42575 0.01499,4.02559 c 0,0 -1.638306,-0.091 -1.51567,-0.091 h -0.502812 -0.503328 v -3.29644 -3.29644 l 0.538468,-1.15496 c 0.296137,-0.6354 0.555056,-1.15512 0.575676,-1.15497 z m 37.980627,2.17868 0.193787,0.60461 c 0.38091,1.18914 0.636443,2.41618 0.807703,3.87832 0.06346,0.54172 0.181518,2.73523 0.185518,3.4401 0.001,0.16266 -0.01926,0.29183 -0.04496,0.28783 -0.02568,-0.004 -0.202463,-0.0652 -0.392741,-0.13487 -0.2937,-0.10759 -0.355845,-0.15846 -0.411345,-0.3359 -0.06287,-0.20088 -0.05731,-0.21294 0.146245,-0.30954 0.313848,-0.14894 0.498646,-0.5757 0.324528,-0.74982 -0.05,-0.05 -0.03024,-0.12048 0.07286,-0.25994 0.1273,-0.17222 0.133395,-0.209 0.0584,-0.36432 -0.0458,-0.095 -0.07621,-0.22367 -0.06821,-0.28577 0.02362,-0.17673 -0.1584,-0.40136 -0.361218,-0.44596 -0.26055,-0.0572 -0.338602,-0.17347 -0.280604,-0.4191 0.06288,-0.26631 0.04514,-0.34244 -0.135909,-0.57981 -0.08268,-0.10844 -0.150378,-0.23902 -0.150378,-0.29042 0,-0.1436 -0.216615,-0.30764 -0.414445,-0.31264 -0.09779,-0.003 -0.294383,0.0542 -0.437183,0.12712 l -0.259932,0.13281 -0.102836,-0.31006 c -0.17369,-0.52296 -0.519421,-0.63969 -0.929659,-0.31368 -0.19171,0.15233 -0.257173,0.17354 -0.386023,0.12454 -0.08538,-0.0325 -0.207701,-0.0589 -0.271301,-0.0589 -0.16487,0 -0.500747,0.30076 -0.599447,0.53692 l -0.08372,0.20102 -0.244946,-0.13436 c -0.23577,-0.12912 -0.252405,-0.13009 -0.465605,-0.0284 -0.1217,0.058 -0.292622,0.21851 -0.379822,0.35657 -0.152248,0.24068 -0.171426,0.25087 -0.484724,0.25063 -0.38746,-4.1e-4 -0.782197,-0.0988 -0.933277,-0.23306 -0.16288,-0.14478 -0.13301,-0.20206 0.10542,-0.20206 0.24619,0 0.408244,-0.1757 0.408244,-0.44235 0,-0.12384 0.04543,-0.18419 0.180867,-0.24029 0.09947,-0.0412 0.195624,-0.13064 0.213424,-0.19844 0.04416,-0.16886 -0.296035,-0.38161 -0.537435,-0.33641 -0.20985,0.0393 -0.226319,0.0721 0.372071,-0.75603 0.252188,-0.34899 0.605398,-0.7641 0.784448,-0.92242 0.380228,-0.33622 1.275017,-0.78939 1.845365,-0.93431 0.5343,-0.13576 1.94937,-0.34068 2.352828,-0.34107 z m -23.996468,1.07487 c 0.02215,0.01 0.03152,0.0328 0.03152,0.0698 0,0.0553 0.03471,0.10075 0.07751,0.10077 0.118532,3e-5 5.148644,0.17168 8.265645,0.28215 1.523867,0.054 3.358656,0.11779 4.077787,0.14159 l 1.307931,0.0429 0.02067,0.34261 c 0.0116,0.18834 0.0014,1.27414 -0.02274,2.41277 l -0.04393,2.07016 h -1.899109 -1.899109 l -0.21239,-0.18655 c -0.348306,-0.30583 -0.81743,-0.24491 -0.945679,0.12299 -0.0487,0.1397 -0.104704,0.1881 -0.217041,0.1881 -0.196122,0 -0.313542,0.1455 -0.275952,0.3421 0.02215,0.11591 0.0034,0.15606 -0.07338,0.15606 -0.05689,0 -0.132805,0.0289 -0.168465,0.0646 -0.03809,0.0377 -0.291169,0.0576 -0.613399,0.047 l -0.548287,-0.0181 0.170532,-0.20257 c 0.13559,-0.16095 0.21736,-0.20258 0.399976,-0.20258 0.471985,0 0.620475,-0.28101 0.387573,-0.7338 -0.202252,-0.3932 -0.42719,-0.55239 -1.024227,-0.72502 -0.303469,-0.0877 -0.587419,-0.15968 -0.630969,-0.15968 -0.04355,0 -0.257418,-0.12208 -0.475423,-0.2713 -0.492498,-0.33711 -0.888284,-0.5379 -1.474329,-0.74828 -0.401088,-0.14401 -0.549064,-0.16317 -1.245402,-0.16278 -1.013377,6.1e-4 -1.413009,0.0685 -2.236556,0.37982 -0.368563,0.13931 -0.808081,0.27748 -0.976168,0.30748 -0.519313,0.0928 -0.78262,0.46216 -0.783414,1.09812 -6.11e-4,0.45735 0.229038,0.8288 0.513147,0.82941 0.308043,7.6e-4 0.581588,0.13104 0.781864,0.3731 l 0.206189,0.24908 H 57.987142 55.67979 c -0.713686,0.0448 -1.287754,0.009 -2.821017,0.52814 l -5.115967,-1.04438 -0.03204,-4.51342 c 3.8e-4,-0.29856 0.01897,-0.6511 0.04082,-0.78342 l 0.03979,-0.24029 0.939994,0.0408 c 1.124711,0.049 9.228766,0.28361 9.828341,0.28422 h 0.420129 v 1.49448 c 0,1.00183 0.0213,1.49449 0.06511,1.49449 0.03595,0 0.148049,-0.0428 0.24908,-0.0951 l 0.183968,-0.0951 v -1.61748 c 0,-0.88947 0.02083,-1.6176 0.04651,-1.61799 0.02568,-5e-4 0.110019,-0.0176 0.187069,-0.0382 0.05151,-0.0138 0.08637,-0.0167 0.10852,-0.007 z m 17.145207,1.23661 c 0.0091,0.007 -0.0098,0.032 -0.05013,0.0806 -0.04861,0.0586 -0.165996,0.14675 -0.260966,0.19585 -0.223242,0.11549 -0.237739,0.11363 -0.458887,-0.0692 l -0.186552,-0.15452 0.342098,0.016 c 0.188347,0.009 0.412304,-0.008 0.497644,-0.0387 0.0708,-0.0253 0.107714,-0.0369 0.116789,-0.03 z m -14.063224,0.0377 v 0.66197 0.66249 h 0.181384 c 0.671033,0 1.742979,0.38411 2.505273,0.89762 l 0.333313,0.22428 0.01705,-1.16169 c 0.0093,-0.6388 0.0093,-1.1687 0,-1.1777 -0.0093,-0.009 -0.696617,-0.0365 -1.527039,-0.0615 z m -9.361186,0.18448 0.06098,4.28243 c 1.460098,-0.0206 3.191828,-0.0508 4.381645,-0.10801 v -2.04638 -2.04639 c 0,0 -4.517903,-0.0956 -4.442623,-0.0816 z m 24.362854,0.0191 c 0.06643,0 0.13858,0.0282 0.15968,0.0625 0.02183,0.0354 -0.03052,0.062 -0.120923,0.062 -0.08763,0 -0.15968,-0.0278 -0.15968,-0.062 0,-0.0343 0.05442,-0.0625 0.120923,-0.0625 z m -0.84801,1.05834 c 0.310048,0 0.353467,0.12282 0.353467,0.9958 0,0.43992 -0.01692,0.84404 -0.03772,0.89814 -0.0208,0.0542 -0.05551,0.0955 -0.07752,0.0915 -0.24674,-0.0445 -0.245518,-0.0407 -0.271818,-0.91467 -0.0141,-0.46898 -0.04783,-0.9017 -0.07493,-0.9617 -0.03971,-0.0881 -0.01904,-0.10903 0.108521,-0.10903 z m -14.34021,0.77824 v 0.35812 0.3576 l -0.700216,-0.007 c -1.228793,-0.0129 -1.561125,-0.16615 -1.089856,-0.50229 0.17892,-0.12756 0.294301,-0.14769 0.996322,-0.17519 z m 0.729671,0.0227 c 0.167771,0.003 0.359386,0.0191 0.479557,0.0455 0.458898,0.10078 1.094507,0.48407 1.094507,0.6599 0,0.0278 -0.418459,0.0506 -0.929659,0.0506 h -0.929142 l -0.04341,-0.34572 c -0.02371,-0.18991 -0.02664,-0.36147 -0.0067,-0.38137 0.02347,-0.0235 0.167092,-0.0324 0.334863,-0.0289 z m 10.478947,1.54254 0.38809,0.008 0.567924,0.0419 c 0.99386,0.0737 1.856041,0.22518 2.53938,0.44597 l 0.663525,0.21446 -0.02274,0.49144 c -0.02005,0.42835 -0.0052,0.51827 0.116272,0.69918 0.09711,0.14459 0.195458,0.21303 0.324528,0.22583 0.129038,0.0128 0.217438,0.0745 0.290938,0.20257 0.08615,0.15016 0.147007,0.18397 0.329695,0.18397 0.12316,0 0.306698,-0.0428 0.407728,-0.0951 0.173688,-0.0899 0.183451,-0.0881 0.183451,0.03 0,0.15088 0.202574,0.2911 0.499194,0.3452 0.14948,0.0273 0.251027,0.0945 0.318327,0.21188 0.05432,0.0946 0.295365,0.33787 0.535885,0.54053 0.240518,0.20266 0.473164,0.4384 0.516764,0.524 0.04414,0.0867 0.0919,0.47541 0.108004,0.87747 l 0.02894,0.7214 -0.65319,0.0403 c -0.662058,0.0405 -0.855761,0.078 -0.855761,0.16639 0,0.0928 0.175589,0.11497 1.257287,0.15917 1.281198,0.0524 2.086041,-3.7e-4 1.978691,-0.12971 -0.03828,-0.0461 -0.22872,-0.10096 -0.42323,-0.12196 -0.19451,-0.021 -0.461769,-0.0538 -0.594279,-0.0729 l -0.240812,-0.0346 0.03204,-1.12965 c 0.0178,-0.62125 0.05842,-1.21347 0.08992,-1.3162 0.05042,-0.16463 0.09125,-0.19096 0.346232,-0.22066 0.1755,-0.0205 0.346082,-0.0873 0.434082,-0.17001 0.11893,-0.11172 0.200841,-0.13192 0.453719,-0.11162 0.31247,0.0251 0.804565,0.17773 1.222665,0.3793 l 0.229443,0.11059 0.0031,2.24741 c 0.0033,2.63619 -0.02584,2.9835 -0.267684,3.19153 l -0.169499,0.14521 -7.203178,-0.005 -7.203695,-0.004 -1.027327,-0.17725 c -2.074595,-0.35736 -4.360667,-0.98917 -6.644039,-1.83658 -0.583453,-0.21653 -0.630268,-0.24594 -0.570508,-0.3576 0.03576,-0.0669 0.04738,-0.1917 0.02584,-0.2775 -0.03329,-0.13257 -0.0644,-0.15018 -0.20774,-0.11628 -0.09268,0.0219 -0.214968,0.0948 -0.271818,0.16175 -0.05686,0.0671 -0.119843,0.12196 -0.140043,0.12196 -0.07039,0 -0.0359,-0.47509 0.04134,-0.56999 0.121733,-0.14959 0.429026,-0.33938 0.682646,-0.42168 0.330332,-0.10712 0.558114,-0.39839 0.534334,-0.68265 -0.02873,-0.34338 -0.196148,-0.32151 -0.660941,0.0853 -0.61164,0.53529 -0.769205,0.44375 -0.50953,-0.29508 0.13451,-0.3827 0.159971,-0.76846 0.06046,-0.91777 -0.09534,-0.14305 -0.421762,0.2445 -0.472322,0.56069 -0.043,0.26892 -0.117091,0.32156 -0.178801,0.12712 -0.05343,-0.16832 -0.388108,-0.43873 -0.543119,-0.43873 -0.11355,0 -0.123991,0.0285 -0.09405,0.25167 0.02344,0.17474 0.130122,0.37667 0.350366,0.66197 0.333425,0.43192 0.388623,0.56053 0.208256,0.48783 -0.05993,-0.0241 -0.210368,-0.0583 -0.334346,-0.076 -0.368245,-0.0525 -0.361096,0.0824 0.02325,0.4408 0.30431,0.28373 0.480383,0.55991 0.405143,0.63511 -0.0585,0.0585 -3.309721,-1.63442 -4.946468,-2.57556 -0.965067,-0.55492 -1.784497,-1.00872 -1.821077,-1.00872 -0.03657,0 -0.06666,-0.0283 -0.06666,-0.0625 0,-0.0342 0.212413,-0.0355 0.140043,-0.062 -0.189544,-0.0693 0.67697,-0.40421 1.502751,-0.40721 0.173613,-7e-4 1.032636,-0.0909 6.024955,-0.0909 3.213702,0 5.843571,0.0202 5.843571,0.0444 0,0.0242 -0.101524,0.14764 -0.225309,0.2744 l -0.225309,0.23048 0.16123,0.33228 c 0.08866,0.18288 0.185908,0.37441 0.216008,0.42581 0.03011,0.0514 0.107505,0.20221 0.171565,0.33486 0.150928,0.31256 0.327553,0.42272 0.676962,0.42272 h 0.283186 v 0.61288 0.61237 l -0.420646,0.0424 c -1.003302,0.1018 -1.104842,0.12172 -1.104842,0.21652 0,0.1131 0.70808,0.15681 1.509469,0.0925 l 0.513664,-0.0413 v -0.62115 c 0,-0.34162 0.03052,-0.67825 0.0677,-0.74775 0.06734,-0.12576 0.06818,-0.12551 0.214974,0.0124 l 0.147277,0.13849 0.194821,-0.16381 c 0.106997,-0.09 0.264102,-0.16382 0.349332,-0.16382 0.388189,0 0.499244,-0.23971 0.264067,-0.56999 l -0.131258,-0.185 0.131258,-0.14004 c 0.190791,-0.20308 0.166048,-0.43547 -0.07545,-0.70797 -0.187329,-0.21135 -0.200857,-0.253 -0.145727,-0.4377 0.07678,-0.25721 -0.02767,-0.47404 -0.278019,-0.57774 -0.199859,-0.0828 -0.212389,-0.11506 -0.10077,-0.262 0.06826,-0.0899 0.332295,-0.10763 2.14819,-0.14573 l 2.070158,-0.0434 0.0021,-0.19275 c 3.76e-4,-0.0307 -5.66e-4,-0.55969 -5.17e-4,-0.74466 z m -13.273092,0.03 c 0.09594,-0.008 0.200128,0.0242 0.321944,0.0961 0.329598,0.1947 0.400987,0.55864 0.157614,0.80202 -0.219095,0.21912 -0.599857,0.21345 -0.776697,-0.0114 -0.179151,-0.22774 -0.168859,-0.54893 0.02377,-0.74156 0.08941,-0.0894 0.177431,-0.13729 0.273368,-0.14521 z m 5.41569,0.0775 c 0.0503,-0.008 0.104918,-0.007 0.162781,0.005 0.512135,0.10243 0.653303,0.71439 0.217041,0.93999 -0.255668,0.13224 -0.386717,0.11348 -0.575159,-0.0832 -0.305597,-0.31898 -0.156756,-0.80658 0.195337,-0.86144 z m -4.498433,0.71933 1.915645,0.0439 1.916162,0.0434 0.08837,0.17105 c 0.0487,0.0942 0.123902,0.18558 0.167432,0.20308 0.04353,0.0176 -0.937152,0.0337 -2.179712,0.0367 -2.491525,0.005 -2.329504,0.0341 -2.021065,-0.35554 z m -15.899805,0.78549 c 1.136144,0.005 2.246407,0.0657 3.100069,0.1881 1.33578,0.19146 3.250032,0.75783 4.389913,1.29863 0.308199,0.14622 1.162341,0.60989 1.898592,1.03094 1.563459,0.89413 3.912809,2.13313 4.67,2.4629 0.590558,0.2572 0.773323,0.39675 0.865063,0.65991 0.07598,0.21791 0.06423,0.21915 -0.229443,0.0248 -0.229656,-0.15192 -0.63562,-0.27515 -0.63562,-0.19275 0,0.10164 0.304004,0.47523 0.560689,0.68885 0.333455,0.27752 0.348164,0.31034 0.320394,0.71417 l -0.0217,0.31367 h -9.80509 -9.805086 l -0.181901,-0.1819 -0.181901,-0.1819 v -3.17758 -3.17707 l 0.233578,-0.0651 c 0.964354,-0.26945 2.928872,-0.41444 4.822444,-0.40566 z m 27.371973,0.71933 c -0.13714,0.0251 -0.362769,0.46628 -0.362769,0.76016 v 0.21756 l -0.23151,-0.11782 c -0.262887,-0.134 -0.453719,-0.15248 -0.453719,-0.0439 0,0.0406 0.182033,0.25053 0.404626,0.46664 0.222583,0.21611 0.404627,0.41859 0.404627,0.44959 0,0.0309 -0.130361,0.017 -0.289905,-0.031 -0.403681,-0.12149 -0.415804,-0.11701 -0.374654,0.13643 0.0458,0.28228 0.289813,0.6065 0.532267,0.70693 0.115571,0.0479 0.211858,0.14905 0.252698,0.26613 0.06579,0.1887 0.06572,0.18873 -0.135909,0.15193 -0.111059,-0.0202 -0.265048,-0.055 -0.342098,-0.0775 -0.115488,-0.0337 -0.140043,-0.0165 -0.140043,0.0977 0,0.0875 0.165721,0.30977 0.451135,0.60409 l 0.451652,0.46561 0.0217,0.524 0.02222,0.524 -0.302307,5.1e-4 c -0.378097,0.001 -0.564595,0.0499 -0.606165,0.15813 -0.02211,0.0576 0.05057,0.10386 0.229444,0.14676 v 5.2e-4 c 0.276651,0.0664 1.430935,0.0476 1.615405,-0.0263 0.175689,-0.0704 0.125792,-0.20405 -0.09302,-0.24805 -0.437268,-0.088 -0.428393,-0.0783 -0.408243,-0.42582 0.01848,-0.3189 0.02161,-0.32309 0.348299,-0.49816 0.314941,-0.16877 0.704271,-0.6161 0.614433,-0.7059 -0.04877,-0.0487 -0.36001,-0.0422 -0.610816,0.0129 -0.173504,0.0382 -0.183326,0.0315 -0.121956,-0.0832 0.03661,-0.0684 0.249603,-0.2846 0.472839,-0.48059 0.223242,-0.19599 0.40566,-0.38459 0.40566,-0.41909 0,-0.10797 -0.444428,0.002 -0.60048,0.14831 -0.16689,0.15679 -0.178876,0.12385 -0.06925,-0.19069 0.09438,-0.27073 0.121885,-0.29153 0.444935,-0.34313 0.300045,-0.0479 0.535884,-0.18686 0.535884,-0.31523 0,-0.1271 -0.284162,-0.1846 -0.533817,-0.108 l -0.209807,0.0646 0.149345,-0.19586 c 0.167547,-0.22023 0.254603,-0.49642 0.189653,-0.60151 -0.06056,-0.098 -0.250638,0.0824 -0.509013,0.48317 -0.208975,0.32416 -0.331246,0.41122 -0.331246,0.23565 0,-0.0502 -0.08425,-0.18728 -0.187069,-0.30438 l -0.187068,-0.2129 0.123506,-0.27182 c 0.261807,-0.57698 0.07285,-0.8365 -0.24753,-0.34003 l -0.155546,0.24133 -0.03772,-0.38344 c -0.02052,-0.21075 -0.05447,-0.4007 -0.07596,-0.4222 -0.01505,-0.015 -0.03312,-0.0196 -0.05271,-0.016 z m 8.87026,0.46147 -0.03721,0.32763 c -0.05791,0.50526 -0.107259,0.556 -0.343649,0.35709 -0.10805,-0.0909 -0.254561,-0.24654 -0.325561,-0.34624 l -0.128675,-0.18138 0.284738,0.0393 c 0.228378,0.0313 0.311792,0.0156 0.418062,-0.0786 z m -30.969686,0.38086 c -0.03346,0.002 -0.04699,0.031 -0.06821,0.0884 -0.02715,0.0734 0.01495,0.27903 0.10852,0.52762 0.14216,0.37767 0.205065,0.84026 0.114205,0.84026 -0.02153,0 -0.147938,-0.0982 -0.280603,-0.21807 -0.54109,-0.48884 -0.576623,-0.1325 -0.04496,0.4501 0.23891,0.26178 0.240295,0.26594 0.240295,0.78703 0,0.58204 -0.01269,0.59945 -0.434082,0.59945 -0.141616,0 -0.296146,0.0483 -0.383956,0.11988 -0.16559,0.13508 -0.124498,0.16903 0.257349,0.21033 0.119855,0.0129 0.432972,0.0286 0.695565,0.0336 0.715962,0.0149 0.840636,-0.0667 0.452685,-0.29559 -0.197253,-0.11641 -0.219255,-0.15518 -0.202055,-0.3545 0.0179,-0.20752 0.04176,-0.2313 0.325562,-0.3266 0.312515,-0.10493 0.585236,-0.37511 0.506946,-0.50178 -0.09365,-0.15152 -0.661244,-0.002 -0.740524,0.19534 -0.01751,0.0435 -0.03399,-0.0695 -0.03669,-0.25063 -0.0059,-0.39603 0.158104,-0.7559 0.404627,-0.88677 0.155409,-0.0825 0.523999,-0.57142 0.523999,-0.69504 0,-0.11858 -0.433918,-0.0434 -0.611333,0.10593 l -0.185518,0.15607 -0.12144,-0.20619 c -0.0668,-0.11322 -0.216446,-0.2517 -0.332796,-0.308 -0.100949,-0.0489 -0.154124,-0.0731 -0.187585,-0.0708 z m 10.692887,4.19457 0.618567,0.25218 c 0.786191,0.32057 2.110752,0.76685 2.953308,0.99478 l 0.653707,0.17621 -2.399337,0.005 -2.399337,0.005 0.03824,-0.42013 c 0.04329,-0.47193 0.09488,-0.59481 0.353984,-0.84129 z"
       sodipodi:nodetypes="sssssscsssssccccsccccccsccscscssssscssssccccsscsscsssssssssssssssssscsscsssssscscscssssssscsssscsssssssccsscssscssssssssssscssscsscsscssscssssssssccsssssscccsssssssscsscccsssssscssssssscssscssscscsssscsssscccccsccscccccccsccssccccccccscccccssssssssscccccccsssccsscccccscssssccssscssssssssscccssscssssssssscscsssssssssssssssscsssssccsssssssssscssccssscssssscsssccccsccscsscssssscssccsssscsscssscccscccccccccccsccsccssssscccsssccccssscccsccsssscssssccssssccccccccssssccccsssssscscccccccccccccccssccscssssccccssccccccccscccscccscsssscscscsccccccsssssccscccccccsssssssssccccssssccccsscscccccccscssssscsssssssssccsssssccsscccsssccccsccsccccscccssssscccssssssscssscccccsccsssscscssccccccccccssccsssssssccscccccsccscssssssssscscccsssccccccssccscccccsssssssscccsssssssssccsscscccccccsssssscccccccsccccccc"
       inkscape:export-filename="logo.svg"
       inkscape:export-xdpi="275.47971"
       inkscape:export-ydpi="275.47971"
       inkscape:label="logo" /></g></svg>
