<?xml version="1.0" encoding="UTF-8" standalone="no"?>
<!-- Created with Inkscape (http://www.inkscape.org/) -->

<svg
   width="121.54818mm"
   height="31.104046mm"
   viewBox="0 0 121.54818 31.104046"
   version="1.1"
   id="svg1"
   xml:space="preserve"
   inkscape:version="1.3.2 (091e20e, 2023-11-25, custom)"
   sodipodi:docname="inomeado.svg"
   xmlns:inkscape="http://www.inkscape.org/namespaces/inkscape"
   xmlns:sodipodi="http://sodipodi.sourceforge.net/DTD/sodipodi-0.dtd"
   xmlns="http://www.w3.org/2000/svg"
   xmlns:svg="http://www.w3.org/2000/svg"><sodipodi:namedview
     id="namedview1"
     pagecolor="#ffffff"
     bordercolor="#000000"
     borderopacity="0.25"
     inkscape:showpageshadow="2"
     inkscape:pageopacity="0.0"
     inkscape:pagecheckerboard="0"
     inkscape:deskcolor="#d1d1d1"
     inkscape:document-units="mm"
     inkscape:zoom="1.4142136"
     inkscape:cx="144.60333"
     inkscape:cy="605.63694"
     inkscape:window-width="1716"
     inkscape:window-height="869"
     inkscape:window-x="98"
     inkscape:window-y="56"
     inkscape:window-maximized="0"
     inkscape:current-layer="layer1" /><defs
     id="defs1" /><g
     inkscape:label="Camada 1"
     inkscape:groupmode="layer"
     id="layer1"
     transform="translate(-28.994488,-219.74401)"><path
       style="fill:#445500;fill-opacity:0.854902"
       d="m 31.426358,250.73932 c -0.56933,-0.12808 -1.373,-0.64425 -1.72607,-1.10859 -0.16881,-0.222 -0.39667,-0.64352 -0.50636,-0.9367 -0.19397,-0.51843 -0.19944,-0.69039 -0.19944,-6.26803 v -5.73497 l 0.35889,-0.0945 c 0.19739,-0.052 0.66035,-0.14199 1.02882,-0.20005 1.17116,-0.18454 1.07535,-0.11785 1.06337,-0.74014 -0.009,-0.476 0.032,-0.61321 0.29966,-0.99864 0.22677,-0.32655 0.39422,-0.46372 0.62208,-0.50959 0.68698,-0.1383 0.68585,-0.13742 0.47453,-0.36856 -0.2925,-0.31994 -0.33235,-0.59407 -0.16837,-1.15814 0.29164,-1.0032 0.96578,-1.42751 1.68067,-1.05782 l 0.27783,0.14367 0.18334,-0.41446 c 0.10688,-0.24163 0.38886,-0.58776 0.67618,-0.83004 l 0.49285,-0.41557 -0.0256,-2.20869 -0.0257,-2.20869 -0.41085,-0.0478 -0.41085,-0.0479 0.44118,-0.90919 c 2.34547,-4.83357 2.37052,-4.88091 2.58299,-4.88091 0.23466,0 7.20414,0.4817 11.05255,0.76391 1.39489,0.10229 4.12474,0.29898 6.06634,0.4371 l 3.53017,0.25112 1.20719,0.80286 1.20718,0.80287 4.01957,0.24339 c 5.79305,0.35077 9.67057,0.60437 11.13873,0.7285 l 1.2812,0.10832 3.83397,2.04603 c 2.10869,1.12531 3.87714,2.08919 3.9299,2.14194 0.0641,0.0641 -0.25976,0.0959 -0.97597,0.0959 h -1.07189 v 4.05432 4.05431 l 0.88527,0.0702 c 0.48689,0.0386 1.2298,0.12264 1.65089,0.18673 0.70241,0.10692 0.44952,0.12215 -3.06253,0.18441 -2.10549,0.0373 -4.05427,0.0926 -4.33061,0.12273 -0.47466,0.0518 -0.50245,0.0698 -0.50245,0.32531 0,0.224 0.0573,0.28936 0.33347,0.38051 0.52509,0.17329 0.7473,0.5268 0.69213,1.10109 -0.0422,0.43934 -0.0195,0.50793 0.2777,0.83769 0.52577,0.58343 0.41225,1.29349 -0.29277,1.83123 -0.25354,0.19339 -0.3406,0.33138 -0.3406,0.53983 0,0.40397 -0.35105,0.60954 -0.93467,0.54733 -0.24917,-0.0266 -0.52269,-0.0775 -0.60782,-0.1131 -0.13414,-0.0562 -0.16375,0.0619 -0.22214,0.88553 l -0.0674,0.95033 -0.43721,0.0599 c -0.55897,0.0766 -1.48835,0.0754 -2.49793,-0.003 -0.71327,-0.0555 -0.78034,-0.077 -0.64931,-0.20804 0.10617,-0.10617 0.48042,-0.1672 1.36867,-0.22319 0.6724,-0.0424 1.27872,-0.0986 1.34738,-0.12497 0.194,-0.0744 0.12059,-1.45021 -0.075,-1.40574 -0.079,0.018 -0.36885,0.0562 -0.64421,0.085 -0.66046,0.0691 -0.79135,-0.0446 -0.79135,-0.68688 0,-0.41525 -0.0418,-0.53651 -0.25189,-0.72999 -0.31864,-0.29351 -0.60462,-0.90679 -0.60735,-1.30246 -0.003,-0.42182 0.1238,-0.71452 0.48976,-1.13133 l 0.31328,-0.3568 -0.47435,0.059 c -0.7709,0.0959 -10.77488,0.14068 -13.68152,0.0613 -5.78086,-0.15791 -9.75984,-0.2085 -9.66612,-0.1229 0.0526,0.0481 0.37563,0.20809 0.71778,0.3556 0.98917,0.42644 2.36535,1.21901 4.83306,2.78346 2.01383,1.2767 4.33128,2.65462 5.28765,3.14394 l 0.31104,0.15914 v -0.49333 c 0,-0.47556 -0.0207,-0.51397 -0.57422,-1.06579 -0.64871,-0.64669 -0.76847,-1.02981 -0.32191,-1.02981 0.1779,0 0.36644,0.12701 0.6393,0.43067 0.21285,0.23687 0.41154,0.43077 0.44154,0.43088 0.03,1.2e-4 0.0404,-0.29783 0.0231,-0.66211 -0.0294,-0.6189 0.0784,-1.06078 0.25874,-1.06078 0.15651,0 0.2991,0.50401 0.2991,1.05725 0,0.75402 0.16564,0.75324 0.86753,-0.004 0.54602,-0.58915 0.72402,-0.6826 0.82062,-0.43085 0.10509,0.27384 -0.0577,0.57731 -0.69295,1.29179 -0.54533,0.61334 -1.18525,1.66354 -1.0768,1.76718 0.0186,0.0177 0.41234,-0.0502 0.87506,-0.15097 0.64343,-0.14012 0.88782,-0.15832 1.03909,-0.0774 0.28204,0.15094 0.1107,0.28655 -0.66394,0.52545 l -0.64223,0.19808 0.69644,0.35473 c 2.62829,1.3387 6.77229,2.72 9.92672,3.30882 2.44146,0.45574 3.3465,0.50898 8.63816,0.50812 l 5.00139,-8.1e-4 0.31187,0.46529 c 0.17152,0.25592 0.45944,0.57418 0.63981,0.70725 l 0.32795,0.24196 -28.37095,-0.0102 c -16.88185,-0.006 -28.52945,-0.0459 -28.76235,-0.0983 z m 38.48166,-1.32701 c -0.0325,-0.0526 -0.11593,-0.0957 -0.18532,-0.0957 -0.42107,0 -3.7816,-1.27694 -5.63906,-2.14274 -0.5189,-0.24188 -0.97779,-0.41856 -1.01975,-0.39263 -0.29067,0.17965 -0.77132,1.40175 -0.89321,2.27109 l -0.0502,0.3578 3.79804,0.0261 c 2.08893,0.0144 3.85442,0.0364 3.92333,0.0489 0.0689,0.0125 0.0987,-0.0203 0.0661,-0.0729 z m -8.52957,-0.16749 c 0.0269,-0.0921 0.0777,-0.37183 0.11294,-0.62158 l 0.0641,-0.45411 -0.89606,-0.85321 c -0.73402,-0.69892 -0.87392,-0.87603 -0.77365,-0.97944 0.10089,-0.10405 0.2607,-0.0551 0.90941,0.2785 0.43286,0.2226 0.81922,0.40472 0.85857,0.40472 0.0394,0 0.0704,-0.2261 0.0689,-0.50244 l -0.003,-0.50245 -1.16972,-0.62153 c -0.64335,-0.34185 -2.16027,-1.24205 -3.37093,-2.00046 -4.53952,-2.84375 -5.84203,-3.56207 -7.9913,-4.40716 -2.13922,-0.84114 -4.71156,-1.39985 -7.54473,-1.63871 -1.55214,-0.13086 -6.25038,-0.0707 -7.81578,0.10009 -1.13918,0.12428 -3.29033,0.46238 -3.40916,0.53582 -0.0465,0.0287 -0.0841,2.22371 -0.0841,4.90984 0,4.0051 0.0248,4.94143 0.14131,5.33373 0.14723,0.49576 0.50229,0.91595 0.91144,1.07862 0.15469,0.0615 5.48884,0.0973 15.09088,0.10119 14.06499,0.006 14.85421,-0.003 14.90048,-0.16142 z m -16.13784,-3.55633 c -1.03668,-0.11522 -1.01807,-0.27679 0.0503,-0.43672 0.64164,-0.096 0.69313,-0.12124 0.72021,-0.35244 0.0302,-0.2576 -0.12197,-0.41742 -0.83367,-0.87577 -0.36333,-0.234 -0.56474,-0.49958 -0.45903,-0.60528 0.0383,-0.0383 0.29892,0.003 0.57925,0.0911 0.28034,0.0884 0.54996,0.16067 0.59917,0.16067 0.15442,0 10e-4,-1.18603 -0.19213,-1.48854 -0.0992,-0.15509 -0.39406,-0.57316 -0.65525,-0.92904 -0.49536,-0.67495 -0.5343,-0.93207 -0.14116,-0.93207 0.24585,0 0.63276,0.3645 0.8635,0.81349 0.10378,0.20195 0.1608,0.24453 0.19223,0.14355 0.29516,-0.94828 0.62651,-1.48846 0.86385,-1.40831 0.15093,0.051 0.0954,0.78346 -0.13461,1.77476 -0.10172,0.43841 -0.18494,1.07377 -0.18494,1.41191 v 0.6148 l 0.35889,-0.40516 c 0.49187,-0.5553 0.71344,-0.73692 0.90354,-0.74066 0.31375,-0.006 0.2749,0.19328 -0.15498,0.79569 -0.48429,0.67869 -0.81506,1.34656 -0.81824,1.65218 -0.002,0.17215 0.0705,0.21061 0.4894,0.26021 0.58349,0.0691 0.64743,0.11469 0.44493,0.3172 -0.18066,0.18066 -1.46784,0.25218 -2.49128,0.13842 z m 17.15463,0.81049 c 0,-0.0759 -0.0431,-0.16453 -0.0957,-0.19706 -0.0526,-0.0325 -0.0957,0.0295 -0.0957,0.13791 0,0.10838 0.0431,0.19706 0.0957,0.19706 0.0526,0 0.0957,-0.0621 0.0957,-0.13791 z m 7.8447,-9.31288 c -0.002,-0.0395 -0.0603,-0.14715 -0.13018,-0.23926 -0.11699,-0.15412 -0.40544,-0.16748 -3.61458,-0.16748 -3.43338,0 -3.71712,0.0232 -3.71712,0.30399 0,0.0409 0.7429,0.0872 1.65089,0.1029 3.87177,0.0671 5.81384,0.067 5.81099,-1.5e-4 z m 5.00195,-0.22138 0.54866,-0.23321 0.002,-0.45895 c 0.002,-0.65053 0.29041,-0.92877 0.96169,-0.92877 0.41423,0 0.5336,0.0434 0.76998,0.27976 0.15386,0.15386 0.27981,0.33689 0.27989,0.40674 1.1e-4,0.10219 0.47663,0.12699 2.44049,0.12699 h 2.44035 l -3e-5,-3.98706 -4e-5,-3.98705 -0.78956,-0.0556 c -0.43425,-0.0306 -2.25383,-0.0998 -4.0435,-0.1539 -1.78966,-0.0541 -5.19195,-0.16062 -7.56063,-0.2368 -2.36867,-0.0762 -5.52332,-0.1682 -7.01033,-0.20449 l -2.70364,-0.066 v 2.48542 2.48541 l -0.33496,0.15973 -0.33497,0.15974 v -2.61873 -2.61872 l -1.45949,-0.0606 c -0.80272,-0.0333 -3.28983,-0.10459 -5.52691,-0.15832 -2.23709,-0.0537 -5.5317,-0.13901 -7.32137,-0.18952 -1.78967,-0.0505 -3.35084,-0.0922 -3.46928,-0.0925 l -0.21533,-7e-4 v 4.49049 4.4905 l 0.26318,0.0495 c 0.14476,0.0272 0.52159,0.0763 0.83742,0.10918 0.91146,0.0947 2.78495,0.42227 3.84395,0.67201 0.89974,0.21218 1.03996,0.22127 1.86624,0.12102 1.07135,-0.12998 7.34676,-0.15678 9.81129,-0.0419 1.73863,0.0811 1.74004,0.0809 1.68759,-0.11963 -0.0373,-0.14243 -0.12891,-0.20074 -0.31554,-0.20074 -0.31539,0 -0.71823,-0.29727 -0.91285,-0.67363 -0.0818,-0.15815 -0.14164,-0.53284 -0.14164,-0.88658 0,-0.96891 0.32914,-1.33265 1.96193,-2.16817 1.0273,-0.52568 1.79041,-0.67045 3.54106,-0.67179 2.72197,-0.002 5.10045,0.58881 6.44895,1.60212 0.24077,0.18092 0.54559,0.27633 1.18792,0.37181 1.11855,0.16626 1.48076,0.34952 1.76891,0.89497 0.43947,0.83189 0.11935,1.65316 -0.6918,1.7748 -0.24735,0.0371 -0.44473,0.13197 -0.51773,0.24887 -0.1154,0.18477 -0.0932,0.18814 1.0109,0.15325 0.92993,-0.0294 1.2256,-0.0768 1.67756,-0.26888 z m -24.52256,-4.62156 v -3.60295 h 1.13293 c 0.62311,0 2.23706,0.0284 3.58656,0.0631 l 2.45364,0.0631 0.0263,3.3669 0.0263,3.36691 -2.53616,0.1132 c -1.39489,0.0623 -3.02067,0.14007 -3.61284,0.17291 l -1.07667,0.0597 z m 19.42795,0.49693 c -1.19215,-0.61035 -3.38902,-1.22876 -4.36511,-1.22876 h -0.3244 l -5e-5,-1.26808 -6e-5,-1.26808 2.73008,0.0253 2.73008,0.0253 0.0215,2.05634 c 0.0118,1.13098 -6e-5,2.04941 -0.0264,2.04093 -0.0263,-0.008 -0.37085,-0.18077 -0.76563,-0.38289 z m 1.63926,4.17217 c 0.85296,-0.44108 0.54133,-1.76417 -0.41552,-1.76417 -0.7536,0 -1.16844,0.77435 -0.77325,1.44336 0.25836,0.43736 0.72162,0.56238 1.18877,0.32081 z m -9.57535,-0.22554 c 0.31893,-0.31893 0.365,-0.71337 0.13521,-1.15773 -0.28706,-0.55511 -0.90998,-0.64334 -1.40696,-0.19928 -0.25685,0.22949 -0.31038,0.34671 -0.31038,0.67972 0,0.33301 0.0535,0.45023 0.31038,0.67972 0.42486,0.37962 0.8906,0.37873 1.27175,-0.002 z m -21.17317,-6.27601 c -0.0287,-4.75735 -0.0154,-5.40726 0.11089,-5.40689 0.079,2.3e-4 2.44764,0.10735 5.26373,0.23805 2.8161,0.13069 6.08918,0.28223 7.27352,0.33675 1.18434,0.0545 2.97162,0.14058 3.97172,0.19126 1.00011,0.0507 2.31365,0.11709 2.91898,0.1476 l 1.1006,0.0555 0.37847,-0.32782 0.37848,-0.32783 -1.23981,-0.0625 c -0.6819,-0.0344 -2.46722,-0.10663 -3.96738,-0.16052 -5.30429,-0.19054 -16.39024,-0.66905 -16.45705,-0.71034 -0.0373,-0.023 -0.58098,-0.79772 -1.20828,-1.72155 l -1.14054,-1.6797 -0.94185,1.93863 -0.94185,1.93862 0.0103,5.40729 0.0104,5.40728 1.50572,0.0516 c 0.82814,0.0284 1.84341,0.0607 2.25616,0.0718 l 0.75043,0.0202 z m 28.67151,3.44272 c -0.25929,-0.1857 -0.69159,-0.44624 -0.96066,-0.57899 -0.52625,-0.25963 -2.05089,-0.61135 -2.65897,-0.6134 l -0.37278,-0.001 0.0562,0.67008 c 0.0309,0.36854 0.0828,0.71308 0.11523,0.76563 0.0364,0.0589 0.87007,0.0956 2.17575,0.0956 h 2.11669 z m -4.32475,-0.45194 c -0.0261,-0.38162 -0.0673,-0.71539 -0.0915,-0.74171 -0.0883,-0.096 -1.62137,0.008 -2.16873,0.1466 -0.30946,0.0786 -0.93393,0.32321 -1.38771,0.54361 -0.74125,0.36003 -0.7959,0.40413 -0.53795,0.43412 1.04099,0.12107 3.06821,0.28976 3.60005,0.29956 l 0.63323,0.0117 z m 25.3168,16.96179 c -1.19371,-0.18846 -2.27481,-0.98513 -2.27481,-1.67633 0,-0.46822 0.18675,-0.5023 0.81364,-0.14851 1.34388,0.75844 2.76538,0.76289 4.70547,0.0147 0.98526,-0.37996 2.64253,-1.47007 3.2325,-2.12626 0.98984,-1.10094 1.38407,-2.52406 0.89704,-3.23819 -0.46404,-0.68043 -1.43537,-0.99017 -2.94935,-0.94048 l -0.90919,0.0298 -0.20791,0.62208 c -0.50389,1.50768 -0.90016,2.93411 -0.99189,3.5705 -0.17156,1.19024 -0.14096,1.1336 -0.59438,1.10042 -0.36277,-0.0265 -0.4265,-0.072 -0.68234,-0.48678 -0.1993,-0.3231 -0.27792,-0.56676 -0.26763,-0.82938 0.0321,-0.82039 1.43872,-5.65292 2.24037,-7.69717 0.29373,-0.74905 0.46833,-1.0684 0.62312,-1.13976 0.45526,-0.20987 1.65126,0.38517 1.65111,0.82146 -1e-4,0.26301 -0.44838,1.21935 -0.90938,1.94001 l -0.34974,0.54672 0.36641,-0.0521 c 0.64559,-0.0917 2.01206,-0.73316 2.50378,-1.17526 0.48454,-0.43565 1.00192,-1.30306 1.10432,-1.85145 0.14789,-0.79201 -0.37007,-1.50249 -1.29578,-1.77739 -0.66153,-0.19645 -1.03633,-0.18639 -1.99947,0.0537 -1.60647,0.40045 -3.10518,1.27259 -3.80946,2.21682 -0.60381,0.80953 -0.72027,1.10153 -0.70327,1.76325 0.0163,0.6338 -0.10608,0.78533 -0.51647,0.63954 -0.45459,-0.16147 -0.61164,-0.42686 -0.61156,-1.03341 1.3e-4,-1.04455 0.74917,-2.23115 1.9025,-3.01388 1.91878,-1.30222 4.6296,-2.09009 6.28272,-1.82601 2.212112,0.35339 3.227122,1.86544 2.422262,3.6084 -0.385382,0.83453 -2.103122,2.28995 -3.023002,2.56133 -0.24533,0.0724 -0.29125,0.24204 -0.0655,0.24204 0.31179,0 1.57181,0.66503 1.9895,1.05004 1.106052,1.01952 1.167262,2.35032 0.18457,4.01241 -0.45683,0.77265 -1.50656,1.9048 -2.27378,2.45227 -1.82337,1.30113 -4.61539,2.06188 -6.48439,1.76681 z m 43.923042,-0.29063 c -0.61248,-0.10098 -1.53352,-0.54504 -2.15439,-1.03869 -0.67897,-0.53983 -1.27687,-1.36973 -1.90246,-2.64063 -0.28502,-0.57901 -0.55711,-1.06635 -0.60465,-1.08298 -0.10304,-0.036 -0.45913,1.10771 -0.85859,2.7578 -0.36022,1.48805 -0.45108,1.71127 -0.72447,1.77988 -0.4799,0.12045 -0.90599,-0.42845 -0.90599,-1.16713 0,-0.61197 0.5157,-2.76356 2.11677,-8.83162 0.36634,-1.38846 0.64126,-2.54929 0.61092,-2.57963 -0.0303,-0.0303 -0.42024,0.1259 -0.86646,0.3472 -0.44621,0.2213 -0.90971,0.40237 -1.03001,0.40237 -0.7558,0 -0.51255,-1.22935 0.39743,-2.0085 1.16599,-0.99837 3.80946,-1.41534 5.76322,-0.90907 1.34804,0.34932 2.5359,1.22558 3.03269,2.23716 0.22982,0.46797 0.26315,0.64736 0.2598,1.39819 -0.003,0.69249 -0.0488,0.96452 -0.23297,1.38771 -0.3351,0.76979 -0.7608,1.40912 -1.39286,2.09181 -0.78214,0.84481 -1.51068,1.3797 -2.80493,2.05936 l -1.11624,0.58618 0.0333,0.33114 c 0.0494,0.49157 0.38173,1.50827 0.69832,2.13608 0.36581,0.72539 0.81649,1.2127 1.44058,1.55764 0.42581,0.23535 0.61548,0.28048 1.1775,0.2802 0.55922,-2.8e-4 0.74249,-0.0437 1.109,-0.26254 0.2415,-0.14421 0.48913,-0.2622 0.5503,-0.2622 0.22177,0 0.10357,0.39073 -0.22983,0.75976 -0.51714,0.57242 -1.41595,0.82714 -2.36593,0.67051 z m -2.69168,-6.98055 c 0.41635,-0.10497 1.12308,-0.36953 1.5705,-0.5879 1.80391,-0.88047 3.3398,-3.08013 3.02537,-4.33289 -0.0959,-0.38208 -0.58767,-0.87482 -1.08667,-1.08879 -0.65145,-0.27935 -1.81518,-0.49887 -2.64462,-0.49887 -0.97886,0 -0.99063,0.007 -0.94959,0.60211 0.0262,0.3801 -0.12249,1.12357 -0.62622,3.13036 -0.36334,1.44752 -0.69227,2.70723 -0.73095,2.79934 -0.0601,0.1431 -0.0153,0.16748 0.30741,0.16748 0.20776,0 0.71841,-0.0859 1.13477,-0.19084 z m -30.11736,5.71699 c -0.68356,-0.45427 -0.95931,-1.51477 -0.76219,-2.93133 0.22598,-1.624 0.85876,-3.01446 1.86784,-4.10439 0.71084,-0.76779 1.35884,-1.11122 1.98348,-1.0512 1.23286,0.11847 1.68532,1.25092 1.04581,2.61752 -0.50509,1.07937 -1.53919,1.96211 -2.73745,2.3368 -0.61476,0.19224 -0.64516,0.24334 -0.60601,1.01868 0.0424,0.83938 0.26281,1.21257 0.74426,1.2601 0.47551,0.0469 1.26814,-0.39522 1.95872,-1.09263 1.01566,-1.02571 1.33245,-1.51668 1.62406,-2.51711 0.26211,-0.8992 0.71587,-1.91939 0.99405,-2.23496 0.0812,-0.0921 0.23201,-0.16748 0.33512,-0.16748 0.24441,0 0.90749,0.37412 0.97504,0.55014 0.0289,0.0754 -0.15753,0.66074 -0.41435,1.3008 -0.91902,2.2904 -1.03791,3.60419 -0.32616,3.60419 0.44812,0 1.01347,-0.35893 1.77895,-1.12943 l 0.74721,-0.7521 0.37976,-1.23073 c 0.20887,-0.67691 0.46712,-1.7286 0.57388,-2.3371 0.22598,-1.28798 0.38159,-1.5716 0.88582,-1.61452 0.27175,-0.0231 0.40297,0.0253 0.59866,0.22101 0.29514,0.29514 0.27929,0.56848 -0.1051,1.81233 -0.1291,0.41776 -0.2213,0.77299 -0.20489,0.7894 0.0164,0.0164 0.16297,-0.15553 0.32568,-0.3821 0.52839,-0.73578 1.18443,-1.40537 1.63646,-1.67028 0.35393,-0.20741 0.56378,-0.25953 1.04975,-0.26072 0.55087,-0.001 0.62938,0.0241 0.84378,0.27309 0.16568,0.19245 0.22768,0.36422 0.20726,0.57423 -0.0319,0.32829 -0.0632,0.33425 -0.728,0.13905 -0.37916,-0.11132 -0.44646,-0.10247 -0.85029,0.11176 -0.73998,0.39256 -1.74867,1.88373 -3.01098,4.45122 -0.36232,0.73692 -0.73344,1.49059 -0.82473,1.67482 -0.13886,0.28023 -0.22374,0.33977 -0.51942,0.36435 -0.50509,0.042 -0.78727,-0.25324 -0.72017,-0.75346 l 0.0492,-0.36689 -0.60471,0.46348 c -0.74184,0.56859 -1.41749,0.81072 -2.08364,0.74671 -0.4163,-0.04 -0.5376,-0.10229 -0.84879,-0.4359 -0.24576,-0.26347 -0.38315,-0.51484 -0.42523,-0.77798 -0.0342,-0.21382 -0.0685,-0.38876 -0.0762,-0.38876 -0.008,0 -0.25488,0.2261 -0.5492,0.50245 -1.43352,1.34597 -3.32876,1.97074 -4.20725,1.38694 z m 1.94046,-4.43136 c 0.38343,-0.24699 1.169,-1.28106 1.33503,-1.75734 0.11962,-0.34316 -0.009,-0.5816 -0.31274,-0.5816 -0.33188,0 -1.02083,0.7533 -1.422,1.55481 -0.58413,1.16705 -0.48787,1.35588 0.39971,0.78413 z m 39.36567,4.32713 c -0.15792,-0.0726 -0.36135,-0.21542 -0.45208,-0.31734 -0.21039,-0.23634 -0.45711,-0.93178 -0.45711,-1.28844 0,-0.1513 -0.0118,-0.27508 -0.0263,-0.27508 -0.0145,0 -0.27508,0.23526 -0.57916,0.5228 -0.64913,0.61385 -1.60597,1.11486 -2.24676,1.17643 -0.84522,0.0812 -1.48078,-0.39025 -1.74884,-1.29731 -0.25276,-0.8553 0.3644,-3.50427 1.09939,-4.71882 0.2892,-0.4779 0.33808,-0.51538 0.65933,-0.50556 0.3724,0.0114 0.80789,0.24443 0.89864,0.48091 0.0307,0.08 -0.16371,0.69183 -0.43199,1.35971 -0.75092,1.86938 -0.94345,2.98799 -0.58802,3.41626 0.32593,0.39272 1.21274,-0.0484 2.25352,-1.12099 0.77194,-0.79553 0.77365,-0.79843 1.03523,-1.75389 0.1441,-0.52637 0.39336,-1.22444 0.55391,-1.55126 0.59031,-1.20164 1.81978,-2.23212 2.65698,-2.22695 0.78971,0.005 1.61128,0.67814 1.81506,1.48739 0.14899,0.59169 0.12654,1.11807 -0.0893,2.09457 -0.10413,0.47106 -0.18933,0.87543 -0.18933,0.89859 0,0.0232 0.20503,0.0178 0.45563,-0.0119 0.68827,-0.0815 1.4942,-0.41861 2.10518,-0.88052 0.30158,-0.22799 0.5809,-0.3944 0.62072,-0.36978 0.17429,0.10771 0.043,0.45246 -0.32394,0.85054 -0.57007,0.61844 -1.60334,1.10813 -2.46892,1.17006 l -0.67247,0.0481 -0.38007,0.69251 c -0.4846,0.88296 -1.1958,1.66141 -1.78815,1.95725 -0.55168,0.27552 -1.30913,0.34753 -1.71111,0.16266 z m 1.48942,-1.1986 c 0.37025,-0.38413 1.14244,-1.57044 1.14244,-1.75513 0,-0.0273 -0.20186,-0.12667 -0.44858,-0.22089 -0.24719,-0.0944 -0.63051,-0.35851 -0.85383,-0.58829 l -0.40525,-0.41697 -0.16105,0.50351 c -0.19747,0.61735 -0.29363,2.31434 -0.1519,2.68077 0.14624,0.3781 0.36732,0.327 0.87817,-0.203 z m 1.51347,-2.67002 c 0.13875,-0.25926 0.39462,-1.59014 0.39446,-2.05171 -1.8e-4,-0.47687 -0.24141,-1.00413 -0.55115,-1.20461 -0.20264,-0.13116 -0.23679,-0.11832 -0.53985,0.20301 -0.58078,0.61581 -0.79179,1.65974 -0.47179,2.33408 0.14365,0.30273 0.80278,0.88861 0.9997,0.88861 0.0429,0 0.11877,-0.0762 0.16863,-0.16938 z m -29.95433,3.66262 c -0.38898,-0.21141 -0.50119,-0.60604 -0.44321,-1.55876 0.0569,-0.93461 0.35334,-1.87711 0.90952,-2.89152 1.08073,-1.97115 2.12143,-2.98305 3.20478,-3.11611 0.53908,-0.0662 0.83667,0.10092 1.0967,0.61594 0.27535,0.54536 0.25266,0.52961 0.76966,0.53424 0.37432,0.003 0.4682,0.0427 0.58111,0.24325 0.12378,0.21993 0.0987,0.33023 -0.31063,1.36488 -0.67358,1.70265 -0.81465,3.2417 -0.32531,3.54893 0.41719,0.26192 1.92602,-1.15662 2.77482,-2.60879 0.50201,-0.85886 0.77265,-1.07409 0.90779,-0.72193 0.15879,0.41382 -0.96099,2.44972 -1.84104,3.34723 -1.09047,1.1121 -1.93046,1.39912 -2.65629,0.90764 -0.483,-0.32706 -0.73126,-0.88086 -0.81097,-1.80908 l -0.0659,-0.76731 -0.81349,1.0138 c -0.77339,0.96383 -1.52147,1.69408 -1.97957,1.93237 -0.27991,0.1456 -0.69253,0.13122 -0.99797,-0.0348 z m 1.60836,-1.79449 c 0.5087,-0.51817 2.25185,-2.88519 2.87741,-3.90722 0.34439,-0.56267 0.004,-0.66764 -0.80601,-0.24868 -0.90868,0.46989 -2.61178,3.1348 -2.77788,4.34664 -0.0307,0.22407 -0.0164,0.40741 0.0317,0.40741 0.0482,0 0.35181,-0.26917 0.67478,-0.59815 z m -34.854852,0.34365 c -0.60883,-0.0937 -1.02808,-0.23912 -0.94093,-0.32626 0.0486,-0.0486 0.44509,-0.13877 0.88116,-0.20044 l 0.79286,-0.11212 -0.0635,-0.3429 c -0.0883,-0.47662 -0.35914,-0.88362 -0.86233,-1.29595 -0.23611,-0.19347 -0.42929,-0.39195 -0.42929,-0.44107 0,-0.14192 0.61457,-0.10349 0.81912,0.0512 0.28547,0.21592 0.34823,0.17365 0.19167,-0.12911 -0.20245,-0.39149 -0.66592,-0.75319 -1.13474,-0.88558 -0.47199,-0.13328 -0.79213,-0.39539 -0.68824,-0.56349 0.0508,-0.0821 0.28182,-0.10367 0.77373,-0.0721 l 0.70134,0.045 -0.29022,-0.36643 c -0.31459,-0.3972 -1.02876,-1.03993 -1.15552,-1.03993 -0.0432,0 -0.0785,-0.0853 -0.0785,-0.18958 0,-0.45161 0.98604,-0.31831 1.59401,0.21549 0.33611,0.29511 0.34443,0.29717 0.27297,0.0675 -0.0405,-0.13031 -0.14931,-0.34459 -0.2417,-0.47619 -0.1743,-0.24824 -0.37966,-0.88084 -0.38059,-1.17237 -7.1e-4,-0.22228 0.27355,-0.21084 0.57369,0.0239 0.13159,0.10294 0.26931,0.18811 0.30604,0.18928 0.0367,0.001 0.0798,-0.22058 0.0957,-0.49279 0.0161,-0.27452 0.0797,-0.51165 0.14294,-0.53248 0.19379,-0.0638 0.43894,0.56319 0.48794,1.24798 l 0.0467,0.65277 0.17455,-0.26609 c 0.2014,-0.30701 0.55828,-0.60204 0.73199,-0.60513 0.21059,-0.004 0.12848,0.32635 -0.17182,0.69065 l -0.29144,0.35358 0.60487,-0.0565 c 0.48917,-0.0457 0.62955,-0.0268 0.73384,0.0989 0.17185,0.20707 0.0154,0.39544 -0.45244,0.54492 -0.58193,0.1859 -0.96205,0.46636 -1.21342,0.89528 -0.31194,0.5323 -0.30102,0.58679 0.0726,0.36235 0.35978,-0.2161 0.99937,-0.33668 1.08145,-0.20387 0.0309,0.05 -0.0437,0.17393 -0.16573,0.2755 -0.78992,0.65752 -0.92274,0.79025 -0.96939,0.96863 -0.0411,0.15699 -0.0182,0.18545 0.1085,0.13527 0.28969,-0.11471 0.77108,-0.16787 0.93846,-0.10364 0.13216,0.0507 0.0307,0.18488 -0.51904,0.68665 -0.68368,0.62399 -0.87886,0.97216 -0.88063,1.57091 -6.9e-4,0.23162 0.0172,0.23825 0.55909,0.20757 0.43235,-0.0245 0.59736,0.006 0.72479,0.13331 0.15089,0.15089 0.15197,0.17801 0.0126,0.31735 -0.11809,0.11809 -0.38326,0.15594 -1.17921,0.16829 -0.56477,0.009 -1.15605,-0.004 -1.31397,-0.0283 z m 25.799622,-6.40545 c -0.24541,-0.20649 -0.29446,-0.31687 -0.29446,-0.66258 0,-0.91857 0.91399,-1.34863 1.53863,-0.72398 0.40453,0.40452 0.38812,0.87518 -0.0456,1.30894 -0.40439,0.40439 -0.78118,0.42879 -1.19853,0.0776 z m 31.10386,0 c -0.24211,-0.20371 -0.2944,-0.31857 -0.2941,-0.646 2e-4,-0.22799 0.0814,-0.53121 0.19,-0.70927 0.16963,-0.27822 0.23601,-0.31104 0.62908,-0.31104 0.35809,0 0.49123,0.0518 0.71919,0.27975 0.40452,0.40452 0.38811,0.87518 -0.0456,1.30894 -0.40439,0.40439 -0.78118,0.42879 -1.19852,0.0776 z m -27.86199,-8.9688 c -0.65989,-0.18657 -1.11736,-0.5142 -1.40775,-1.00818 l -0.26234,-0.44626 -0.0296,-2.56009 -0.0296,-2.56009 h 0.57993 0.57993 v 2.34951 c 0,2.60184 0.0308,2.76074 0.6028,3.10951 0.39987,0.24381 1.32108,0.25405 1.78981,0.0199 0.62113,-0.31029 0.66961,-0.53886 0.66978,-3.15809 l 1.5e-4,-2.32083 h 0.57422 0.57423 l -5.4e-4,2.36868 c -3.1e-4,1.37451 -0.0431,2.52215 -0.10207,2.73434 -0.14092,0.50751 -0.6668,1.05434 -1.26198,1.31227 -0.60538,0.26236 -1.65316,0.33568 -2.2769,0.15933 z m 7.4218,-0.0724 c -1.15355,-0.37421 -1.99975,-1.28464 -2.30429,-2.47921 -0.39976,-1.56805 0.37209,-3.09218 1.94646,-3.84356 0.53567,-0.25566 0.77433,-0.30993 1.50223,-0.34164 0.55138,-0.024 1.03902,0.01 1.34391,0.0937 l 0.47852,0.1314 -0.004,0.49079 c -0.002,0.26993 -0.0241,0.51104 -0.0489,0.5358 -0.0248,0.0248 -0.28142,-0.0366 -0.57036,-0.13632 -1.30548,-0.45061 -2.59671,-0.0361 -3.22686,1.03589 -0.23082,0.39267 -0.2651,0.55089 -0.26366,1.21698 10e-4,0.5979 0.0466,0.84951 0.20695,1.14845 0.43431,0.80988 1.32252,1.38171 2.15224,1.38561 0.76752,0.004 0.74954,0.0348 0.74954,-1.30014 v -1.18606 h 0.57654 0.57654 l -0.0262,1.60304 -0.0262,1.60304 -0.52638,0.11041 c -0.82302,0.17262 -1.8816,0.14416 -2.53616,-0.0682 z m 9.85753,0.0683 c -0.68256,-0.22622 -1.14438,-0.51372 -1.58938,-0.98946 -0.62178,-0.66473 -0.80322,-1.20124 -0.80322,-2.37504 0,-0.84643 0.0299,-1.01795 0.25883,-1.48405 0.33786,-0.68793 0.95169,-1.30503 1.6074,-1.61598 0.46339,-0.21975 0.64661,-0.24961 1.53127,-0.24961 1.20827,0 1.64128,0.16183 2.43072,0.90845 0.76599,0.72444 0.96599,1.23954 0.96642,2.48905 3.2e-4,0.90548 -0.026,1.05847 -0.26564,1.54654 -0.59279,1.20712 -1.55872,1.82111 -2.9401,1.86886 -0.4949,0.0171 -0.9634,-0.0216 -1.1963,-0.0988 z m 2.07767,-1.13252 c 1.60914,-0.89005 1.58563,-3.56617 -0.0386,-4.3948 -1.58966,-0.81098 -3.25099,0.28127 -3.27156,2.1509 -0.009,0.8071 0.14162,1.29504 0.53906,1.7477 0.69795,0.79492 1.85611,1.00231 2.77111,0.4962 z m -38.684512,-2.18412 v -3.34965 l 1.26808,5.5e-4 c 2.17444,9.5e-4 2.95675,0.25862 3.33885,1.09969 0.19497,0.42917 0.23026,1.14202 0.0767,1.54932 -0.14307,0.37948 -0.64654,0.88494 -1.07841,1.08266 l -0.36649,0.16779 0.29434,0.20959 c 0.16189,0.11527 0.4956,0.49747 0.74159,0.84934 0.24599,0.35186 0.61223,0.86401 0.81386,1.13809 0.20164,0.27409 0.36661,0.52173 0.36661,0.5503 0,0.0286 -0.3005,0.052 -0.66778,0.052 h -0.66779 l -0.68437,-1.02882 c -1.00258,-1.50719 -1.15745,-1.6509 -1.77914,-1.6509 h -0.5076 v 1.33986 1.33986 h -0.57423 -0.57422 z m 3.12745,-0.53498 c 0.61784,-0.45763 0.63445,-1.14255 0.0375,-1.54486 -0.27454,-0.18501 -0.4472,-0.21706 -1.16929,-0.21706 h -0.84718 v 1.01441 1.01442 l 0.85448,-0.0335 c 0.68195,-0.0267 0.909,-0.0738 1.12452,-0.23346 z m 3.61969,0.58283 v -3.3018 h 1.985862 1.98586 v 0.47852 0.47853 h -1.38771 -1.38771 v 0.90918 0.90919 h 1.26808 1.26808 v 0.47853 0.47852 h -1.26808 -1.26808 v 0.96125 0.96125 l 1.49505,-0.0134 1.49506,-0.0134 0.0123,0.48778 0.0123,0.48778 -2.10549,-7e-5 -2.105492,-7e-5 z m 5.637302,6e-5 0.009,-3.30173 1.89015,-6e-5 1.89016,-7e-5 v 0.47852 0.47853 h -1.292 -1.29201 v 0.95704 0.95704 h 1.14845 1.14845 v 0.47852 0.47852 h -1.14845 -1.14845 v 1.38771 1.38771 h -0.60739 -0.6074 z m 19.10223,-6e-5 v -3.3018 h 0.62208 0.62207 v 3.3018 3.30179 h -0.62207 -0.62208 z m -11.69704,-4.0472 -0.3561,-0.0315 0.49309,-0.64039 c 0.2712,-0.35222 0.52056,-0.67352 0.55413,-0.71401 0.0691,-0.0834 0.95698,0.22089 0.95698,0.328 0,0.0779 -1.00156,0.961 -1.17853,1.03917 -0.0624,0.0276 -0.27372,0.036 -0.46957,0.0187 z"
       id="path14"
       inkscape:export-filename="LOGO-NOVA.svg"
       inkscape:export-xdpi="275.47971"
       inkscape:export-ydpi="275.47971" /></g></svg>
