<?xml version="1.0" encoding="UTF-8" standalone="no"?>
<svg
   width="85"
   height="60"
   viewBox="0 0 85 60"
   version="1.1"
   id="svg6"
   sodipodi:docname="truck.svg"
   inkscape:version="1.1 (c68e22c387, 2021-05-23)"
   xmlns:inkscape="http://www.inkscape.org/namespaces/inkscape"
   xmlns:sodipodi="http://sodipodi.sourceforge.net/DTD/sodipodi-0.dtd"
   xmlns="http://www.w3.org/2000/svg"
   xmlns:svg="http://www.w3.org/2000/svg">
  <defs
     id="defs10" />
  <sodipodi:namedview
     id="namedview8"
     pagecolor="#ffffff"
     bordercolor="#666666"
     borderopacity="1.0"
     inkscape:pageshadow="2"
     inkscape:pageopacity="0.0"
     inkscape:pagecheckerboard="0"
     showgrid="false"
     inkscape:zoom="6.9333335"
     inkscape:cx="64.326921"
     inkscape:cy="43.629807"
     inkscape:window-width="1920"
     inkscape:window-height="1017"
     inkscape:window-x="-8"
     inkscape:window-y="-8"
     inkscape:window-maximized="1"
     inkscape:current-layer="svg6" />
  <path
     fill="#FFF"
     d="M5.138 54.039a3.77 3.77 0 0 1-.149-.005l-.859.002A4.134 4.134 0 0 1 0 49.906V5.195a4.135 4.135 0 0 1 4.13-4.133h46.973c2.272 0 4.123 1.95 4.123 4.229v44.612a4.133 4.133 0 0 1-4.127 4.131H29.962c-1.091-.019-3.239-.691-3.727-3.128-1.067-3.957-4.755-6.789-8.947-6.789-4.291 0-8.098 3.041-9.051 7.229-.225 1.817-1.723 2.693-3.099 2.693zM4.127 4.208c-.596 0-1.083.389-1.083.987v44.709c0 .597.488 1.086 1.086 1.086h1.004c.005-.047.123-.271.133-.317 1.267-5.562 6.323-9.597 12.022-9.597a12.356 12.356 0 0 1 11.912 9.137c.151.734.681.777.785.777h21.111c.596 0 1.083-.487 1.083-1.084V5.293c0-.598-.485-1.085-1.083-1.085H4.127zM84.929 35.828s-.093-2.093-.288-3.118c-.164-.873-1.087-2.644-1.087-2.644l-7.299-13.59c-.951-1.52-3.115-2.707-4.558-2.707H60.785a2.608 2.608 0 0 0-2.606 2.609v33.526a2.609 2.609 0 0 0 2.606 2.609h.643s.949-.123 1.304-1.312c.986-3.933 4.514-6.862 8.749-6.862 4.145 0 7.612 2.808 8.682 6.613.442 1.612 2.231 1.561 2.231 1.561A2.608 2.608 0 0 0 85 49.904l-.071-14.076zm-6.603-3.511H65.312a1.996 1.996 0 0 1-1.989-1.99V20.143c0-1.098.894-1.99 1.989-1.99h4.365c2.483 0 4.117 2.009 4.63 2.978l5.065 9.434c.521.962.053 1.752-1.046 1.752z"
     id="path2"
     style="fill:#24a95d;fill-opacity:1" />
  <path
     fill="#009688"
     d="m 3.9810891,2.9849008 c -0.6104591,0 -1.1092738,0.4144348 -1.1092738,1.0515353 V 51.66875 c 0,0.636034 0.4998389,1.157008 1.1123465,1.157008 h 1.0283573 c 0.00512,-0.05007 0.125984,-0.288719 0.1362266,-0.337727 C 6.4464834,46.562358 11.625144,42.263528 17.462403,42.263528 a 12.655759,13.163901 0 0 1 12.200987,9.734426 c 0.154663,0.781993 0.697522,0.827804 0.804044,0.827804 h 21.623158 c 0.610459,0 1.109274,-0.518842 1.109274,-1.154878 V 4.1408438 c 0,-0.6371004 -0.496766,-1.155943 -1.109274,-1.155943 z"
     id="path4"
     style="fill:#24a95d;fill-opacity:1;stroke-width:1.04463" />
  <g
     id="Group_140"
     transform="matrix(0.05753193,0,0,0.05753193,-34.070059,9.5316232)"
     style="fill:#ffffff">
    <path
       id="Path_5"
       class="st0"
       d="M 638.6,254.5 673.1,220 c 9.8,-9.8 23,-15.3 36.9,-15.3 h 127.4 v 49.5 l -66.9,0.1 V 387 H 721 V 254.4 Z"
       style="fill:#ffffff" />
    <path
       id="Path_6"
       class="st0"
       d="m 1184.1,247.3 c 26.8,0 48.5,21.7 48.5,48.5 0,26.8 -21.7,48.5 -48.5,48.5 -26.8,0 -48.5,-21.7 -48.5,-48.5 0,-26.8 21.7,-48.5 48.5,-48.5 m 0,-50.9 c -54.9,0 -99.4,44.5 -99.4,99.4 0,54.9 44.5,99.4 99.4,99.4 54.9,0 99.4,-44.5 99.4,-99.4 0,-54.9 -44.5,-99.4 -99.4,-99.4 0,0 0,0 0,0 z"
       style="fill:#ffffff" />
    <path
       id="Path_7_4_"
       class="st0"
       d="m 1433,204.7 19.5,19.5 -92.8,92.8 V 204.7 h -52 V 387 h 30.4 c 13.8,0 27.1,-5.5 36.9,-15.3 l 112.5,-112.5 19.5,19.5 v -74 z"
       style="fill:#ffffff" />
    <path
       id="Path_8"
       class="st0"
       d="M 961,254.6 995.6,220 c 9.8,-9.8 23,-15.3 36.9,-15.3 h 27.9 V 387 h -49.5 V 275.4 L 961,325.3 911.1,275.4 V 387 H 861.6 V 204.7 h 27.9 c 13.8,0 27.1,5.5 36.9,15.3 z"
       style="fill:#ffffff" />
  </g>
</svg>
